<mxfile host="app.diagrams.net" modified="2023-07-25T08:18:59.650Z" agent="Mozilla/5.0 (Windows NT 10.0; Win64; x64) AppleWebKit/537.36 (KHTML, like Gecko) Chrome/105.0.0.0 Safari/537.36" etag="Go0b3vsdOHJgpT3FMg_X" version="21.6.3" type="github">
  <diagram name="第 1 页" id="rfiRZi3-jdtn5FeHLjKM">
    <mxGraphModel dx="2074" dy="1124" grid="1" gridSize="10" guides="1" tooltips="1" connect="1" arrows="1" fold="1" page="1" pageScale="1" pageWidth="827" pageHeight="1169" math="0" shadow="0">
      <root>
        <mxCell id="0" />
        <mxCell id="1" parent="0" />
        <mxCell id="DxdF4jCooS-aVoTGronZ-1" value="taskQueue" style="rounded=0;whiteSpace=wrap;html=1;" parent="1" vertex="1">
          <mxGeometry x="140" y="50" width="120" height="60" as="geometry" />
        </mxCell>
        <mxCell id="DxdF4jCooS-aVoTGronZ-2" value="timerQueue" style="rounded=0;whiteSpace=wrap;html=1;" parent="1" vertex="1">
          <mxGeometry x="140" y="140" width="120" height="60" as="geometry" />
        </mxCell>
        <mxCell id="DxdF4jCooS-aVoTGronZ-4" style="edgeStyle=orthogonalEdgeStyle;rounded=0;orthogonalLoop=1;jettySize=auto;html=1;entryX=0;entryY=0.5;entryDx=0;entryDy=0;" parent="1" source="DxdF4jCooS-aVoTGronZ-3" target="DxdF4jCooS-aVoTGronZ-7" edge="1">
          <mxGeometry relative="1" as="geometry">
            <mxPoint x="380" y="290" as="targetPoint" />
          </mxGeometry>
        </mxCell>
        <mxCell id="DxdF4jCooS-aVoTGronZ-3" value="schedulerCallback" style="rounded=0;whiteSpace=wrap;html=1;" parent="1" vertex="1">
          <mxGeometry x="140" y="260" width="120" height="60" as="geometry" />
        </mxCell>
        <mxCell id="DxdF4jCooS-aVoTGronZ-6" value="创建任务并判断是延迟任务还是立即执行任务" style="text;html=1;align=center;verticalAlign=middle;resizable=0;points=[];autosize=1;strokeColor=none;fillColor=none;" parent="1" vertex="1">
          <mxGeometry x="270" y="260" width="260" height="30" as="geometry" />
        </mxCell>
        <mxCell id="DxdF4jCooS-aVoTGronZ-10" style="edgeStyle=orthogonalEdgeStyle;rounded=0;orthogonalLoop=1;jettySize=auto;html=1;exitX=1;exitY=0.5;exitDx=0;exitDy=0;" parent="1" source="DxdF4jCooS-aVoTGronZ-7" edge="1">
          <mxGeometry relative="1" as="geometry">
            <mxPoint x="740" y="290" as="targetPoint" />
          </mxGeometry>
        </mxCell>
        <mxCell id="DxdF4jCooS-aVoTGronZ-15" style="edgeStyle=orthogonalEdgeStyle;rounded=0;orthogonalLoop=1;jettySize=auto;html=1;exitX=0.5;exitY=1;exitDx=0;exitDy=0;" parent="1" source="DxdF4jCooS-aVoTGronZ-7" target="DxdF4jCooS-aVoTGronZ-12" edge="1">
          <mxGeometry relative="1" as="geometry" />
        </mxCell>
        <mxCell id="DxdF4jCooS-aVoTGronZ-7" value="是否有延迟" style="rhombus;whiteSpace=wrap;html=1;" parent="1" vertex="1">
          <mxGeometry x="540" y="250" width="80" height="80" as="geometry" />
        </mxCell>
        <mxCell id="DxdF4jCooS-aVoTGronZ-9" value="是" style="text;html=1;align=center;verticalAlign=middle;resizable=0;points=[];autosize=1;strokeColor=none;fillColor=none;" parent="1" vertex="1">
          <mxGeometry x="590" y="340" width="40" height="30" as="geometry" />
        </mxCell>
        <mxCell id="DxdF4jCooS-aVoTGronZ-11" value="否" style="text;html=1;align=center;verticalAlign=middle;resizable=0;points=[];autosize=1;strokeColor=none;fillColor=none;" parent="1" vertex="1">
          <mxGeometry x="640" y="250" width="40" height="30" as="geometry" />
        </mxCell>
        <mxCell id="DxdF4jCooS-aVoTGronZ-23" style="edgeStyle=orthogonalEdgeStyle;rounded=0;orthogonalLoop=1;jettySize=auto;html=1;exitX=0.5;exitY=1;exitDx=0;exitDy=0;entryX=0.5;entryY=0;entryDx=0;entryDy=0;" parent="1" source="DxdF4jCooS-aVoTGronZ-12" target="DxdF4jCooS-aVoTGronZ-25" edge="1">
          <mxGeometry relative="1" as="geometry">
            <mxPoint x="580" y="480" as="targetPoint" />
          </mxGeometry>
        </mxCell>
        <mxCell id="DxdF4jCooS-aVoTGronZ-12" value="修改当前task的sortIndex,然后将任务加入 timerQueue堆中" style="rounded=0;whiteSpace=wrap;html=1;" parent="1" vertex="1">
          <mxGeometry x="520" y="370" width="120" height="60" as="geometry" />
        </mxCell>
        <mxCell id="DxdF4jCooS-aVoTGronZ-17" style="edgeStyle=orthogonalEdgeStyle;rounded=0;orthogonalLoop=1;jettySize=auto;html=1;entryX=0;entryY=0.5;entryDx=0;entryDy=0;" parent="1" source="DxdF4jCooS-aVoTGronZ-16" target="DxdF4jCooS-aVoTGronZ-19" edge="1">
          <mxGeometry relative="1" as="geometry">
            <mxPoint x="960" y="290" as="targetPoint" />
          </mxGeometry>
        </mxCell>
        <mxCell id="DxdF4jCooS-aVoTGronZ-16" value="将数据加入taskQueue最小堆中" style="rounded=0;whiteSpace=wrap;html=1;" parent="1" vertex="1">
          <mxGeometry x="740" y="260" width="120" height="60" as="geometry" />
        </mxCell>
        <mxCell id="DxdF4jCooS-aVoTGronZ-18" value="执行&amp;nbsp;" style="text;html=1;align=center;verticalAlign=middle;resizable=0;points=[];autosize=1;strokeColor=none;fillColor=none;" parent="1" vertex="1">
          <mxGeometry x="940" y="260" width="50" height="30" as="geometry" />
        </mxCell>
        <mxCell id="DxdF4jCooS-aVoTGronZ-20" style="edgeStyle=orthogonalEdgeStyle;rounded=0;orthogonalLoop=1;jettySize=auto;html=1;exitX=1;exitY=0.5;exitDx=0;exitDy=0;" parent="1" source="DxdF4jCooS-aVoTGronZ-19" edge="1">
          <mxGeometry relative="1" as="geometry">
            <mxPoint x="1280" y="290" as="targetPoint" />
          </mxGeometry>
        </mxCell>
        <mxCell id="DxdF4jCooS-aVoTGronZ-19" value="判断是否有正在执行的任务" style="rhombus;whiteSpace=wrap;html=1;" parent="1" vertex="1">
          <mxGeometry x="1020" y="255" width="180" height="70" as="geometry" />
        </mxCell>
        <mxCell id="DxdF4jCooS-aVoTGronZ-21" value="无" style="text;html=1;align=center;verticalAlign=middle;resizable=0;points=[];autosize=1;strokeColor=none;fillColor=none;" parent="1" vertex="1">
          <mxGeometry x="1210" y="258" width="40" height="30" as="geometry" />
        </mxCell>
        <mxCell id="DxdF4jCooS-aVoTGronZ-22" value="将isHostCallbackScheduled&amp;nbsp;变为ture,并且执行requestHostCallBack(flushWork)" style="rounded=1;whiteSpace=wrap;html=1;" parent="1" vertex="1">
          <mxGeometry x="1280" y="260" width="230" height="60" as="geometry" />
        </mxCell>
        <mxCell id="DxdF4jCooS-aVoTGronZ-27" value="" style="edgeStyle=orthogonalEdgeStyle;rounded=0;orthogonalLoop=1;jettySize=auto;html=1;" parent="1" source="DxdF4jCooS-aVoTGronZ-25" edge="1">
          <mxGeometry relative="1" as="geometry">
            <mxPoint x="580" y="690" as="targetPoint" />
          </mxGeometry>
        </mxCell>
        <mxCell id="DxdF4jCooS-aVoTGronZ-28" value="是" style="edgeLabel;html=1;align=center;verticalAlign=middle;resizable=0;points=[];" parent="DxdF4jCooS-aVoTGronZ-27" vertex="1" connectable="0">
          <mxGeometry x="-0.4963" y="2" relative="1" as="geometry">
            <mxPoint as="offset" />
          </mxGeometry>
        </mxCell>
        <mxCell id="DxdF4jCooS-aVoTGronZ-25" value="判断 taskQueue队列为空，并且当前的task就是timer队列堆顶的值" style="rhombus;whiteSpace=wrap;html=1;" parent="1" vertex="1">
          <mxGeometry x="475" y="470" width="210" height="170" as="geometry" />
        </mxCell>
        <mxCell id="DxdF4jCooS-aVoTGronZ-31" value="" style="edgeStyle=orthogonalEdgeStyle;rounded=0;orthogonalLoop=1;jettySize=auto;html=1;" parent="1" source="DxdF4jCooS-aVoTGronZ-29" target="DxdF4jCooS-aVoTGronZ-30" edge="1">
          <mxGeometry relative="1" as="geometry" />
        </mxCell>
        <mxCell id="DxdF4jCooS-aVoTGronZ-32" value="是" style="edgeLabel;html=1;align=center;verticalAlign=middle;resizable=0;points=[];" parent="DxdF4jCooS-aVoTGronZ-31" vertex="1" connectable="0">
          <mxGeometry x="-0.2" y="2" relative="1" as="geometry">
            <mxPoint as="offset" />
          </mxGeometry>
        </mxCell>
        <mxCell id="DxdF4jCooS-aVoTGronZ-35" value="" style="edgeStyle=orthogonalEdgeStyle;rounded=0;orthogonalLoop=1;jettySize=auto;html=1;" parent="1" source="DxdF4jCooS-aVoTGronZ-29" target="DxdF4jCooS-aVoTGronZ-34" edge="1">
          <mxGeometry relative="1" as="geometry" />
        </mxCell>
        <mxCell id="DxdF4jCooS-aVoTGronZ-36" value="否" style="edgeLabel;html=1;align=center;verticalAlign=middle;resizable=0;points=[];" parent="DxdF4jCooS-aVoTGronZ-35" vertex="1" connectable="0">
          <mxGeometry x="-0.32" relative="1" as="geometry">
            <mxPoint as="offset" />
          </mxGeometry>
        </mxCell>
        <mxCell id="DxdF4jCooS-aVoTGronZ-29" value="判断是否有其他延迟任务在做倒计时&lt;br&gt;if(isHostTimeoutScheduled)" style="rhombus;whiteSpace=wrap;html=1;" parent="1" vertex="1">
          <mxGeometry x="500" y="690" width="160" height="120" as="geometry" />
        </mxCell>
        <mxCell id="DxdF4jCooS-aVoTGronZ-39" style="edgeStyle=orthogonalEdgeStyle;rounded=0;orthogonalLoop=1;jettySize=auto;html=1;exitX=0.5;exitY=1;exitDx=0;exitDy=0;entryX=0.5;entryY=0;entryDx=0;entryDy=0;" parent="1" source="DxdF4jCooS-aVoTGronZ-30" target="DxdF4jCooS-aVoTGronZ-38" edge="1">
          <mxGeometry relative="1" as="geometry" />
        </mxCell>
        <mxCell id="DxdF4jCooS-aVoTGronZ-30" value="清除倒计时" style="whiteSpace=wrap;html=1;" parent="1" vertex="1">
          <mxGeometry x="520" y="860" width="120" height="60" as="geometry" />
        </mxCell>
        <mxCell id="DxdF4jCooS-aVoTGronZ-40" style="edgeStyle=orthogonalEdgeStyle;rounded=0;orthogonalLoop=1;jettySize=auto;html=1;exitX=0.5;exitY=1;exitDx=0;exitDy=0;entryX=1;entryY=0.5;entryDx=0;entryDy=0;" parent="1" source="DxdF4jCooS-aVoTGronZ-34" target="DxdF4jCooS-aVoTGronZ-38" edge="1">
          <mxGeometry relative="1" as="geometry" />
        </mxCell>
        <mxCell id="DxdF4jCooS-aVoTGronZ-34" value="将isHostTimeScheduled = true" style="whiteSpace=wrap;html=1;" parent="1" vertex="1">
          <mxGeometry x="760" y="720" width="120" height="60" as="geometry" />
        </mxCell>
        <mxCell id="DxdF4jCooS-aVoTGronZ-46" value="" style="edgeStyle=orthogonalEdgeStyle;rounded=0;orthogonalLoop=1;jettySize=auto;html=1;" parent="1" source="DxdF4jCooS-aVoTGronZ-38" target="DxdF4jCooS-aVoTGronZ-45" edge="1">
          <mxGeometry relative="1" as="geometry" />
        </mxCell>
        <mxCell id="DxdF4jCooS-aVoTGronZ-48" value="倒计时结束，handleTimout" style="edgeLabel;html=1;align=center;verticalAlign=middle;resizable=0;points=[];" parent="DxdF4jCooS-aVoTGronZ-46" vertex="1" connectable="0">
          <mxGeometry x="-0.12" y="1" relative="1" as="geometry">
            <mxPoint as="offset" />
          </mxGeometry>
        </mxCell>
        <mxCell id="DxdF4jCooS-aVoTGronZ-38" value="执行任务倒计时&lt;br&gt;requestHostTimeout(handleTimeout, startTime-currentTIime)" style="rounded=0;whiteSpace=wrap;html=1;" parent="1" vertex="1">
          <mxGeometry x="260" y="980" width="380" height="50" as="geometry" />
        </mxCell>
        <mxCell id="DxdF4jCooS-aVoTGronZ-50" value="" style="edgeStyle=orthogonalEdgeStyle;rounded=0;orthogonalLoop=1;jettySize=auto;html=1;entryX=0.5;entryY=0;entryDx=0;entryDy=0;" parent="1" source="DxdF4jCooS-aVoTGronZ-45" target="DxdF4jCooS-aVoTGronZ-52" edge="1">
          <mxGeometry relative="1" as="geometry">
            <mxPoint x="450" y="1260" as="targetPoint" />
          </mxGeometry>
        </mxCell>
        <mxCell id="DxdF4jCooS-aVoTGronZ-51" value="执行" style="edgeLabel;html=1;align=center;verticalAlign=middle;resizable=0;points=[];" parent="DxdF4jCooS-aVoTGronZ-50" vertex="1" connectable="0">
          <mxGeometry x="-0.1714" y="4" relative="1" as="geometry">
            <mxPoint as="offset" />
          </mxGeometry>
        </mxCell>
        <mxCell id="DxdF4jCooS-aVoTGronZ-45" value="将 isHostTimeoutScheduled = false;&lt;br&gt;advanceTimers(curreuentTIme)//&amp;nbsp;将timer队列中的任务，如果是不需要的就pop掉，如果是过期的就添加到taskQueue中" style="whiteSpace=wrap;html=1;rounded=0;" parent="1" vertex="1">
          <mxGeometry x="325" y="1109" width="250" height="81" as="geometry" />
        </mxCell>
        <mxCell id="DxdF4jCooS-aVoTGronZ-55" value="" style="edgeStyle=orthogonalEdgeStyle;rounded=0;orthogonalLoop=1;jettySize=auto;html=1;entryX=0.469;entryY=0.064;entryDx=0;entryDy=0;entryPerimeter=0;" parent="1" source="DxdF4jCooS-aVoTGronZ-52" target="DxdF4jCooS-aVoTGronZ-56" edge="1">
          <mxGeometry relative="1" as="geometry">
            <mxPoint x="450" y="1475" as="targetPoint" />
          </mxGeometry>
        </mxCell>
        <mxCell id="DxdF4jCooS-aVoTGronZ-57" value="没有" style="edgeLabel;html=1;align=center;verticalAlign=middle;resizable=0;points=[];" parent="DxdF4jCooS-aVoTGronZ-55" vertex="1" connectable="0">
          <mxGeometry x="-0.2417" y="-2" relative="1" as="geometry">
            <mxPoint as="offset" />
          </mxGeometry>
        </mxCell>
        <mxCell id="DxdF4jCooS-aVoTGronZ-52" value="if(!isHostCallbackScheduled当前是否有任务在被执行" style="rhombus;whiteSpace=wrap;html=1;" parent="1" vertex="1">
          <mxGeometry x="365" y="1260" width="170" height="110" as="geometry" />
        </mxCell>
        <mxCell id="DxdF4jCooS-aVoTGronZ-59" value="" style="edgeStyle=orthogonalEdgeStyle;rounded=0;orthogonalLoop=1;jettySize=auto;html=1;" parent="1" source="DxdF4jCooS-aVoTGronZ-56" target="DxdF4jCooS-aVoTGronZ-58" edge="1">
          <mxGeometry relative="1" as="geometry" />
        </mxCell>
        <mxCell id="DxdF4jCooS-aVoTGronZ-60" value="否" style="edgeLabel;html=1;align=center;verticalAlign=middle;resizable=0;points=[];" parent="DxdF4jCooS-aVoTGronZ-59" vertex="1" connectable="0">
          <mxGeometry x="-0.26" y="-5" relative="1" as="geometry">
            <mxPoint as="offset" />
          </mxGeometry>
        </mxCell>
        <mxCell id="DxdF4jCooS-aVoTGronZ-62" value="" style="edgeStyle=orthogonalEdgeStyle;rounded=0;orthogonalLoop=1;jettySize=auto;html=1;" parent="1" source="DxdF4jCooS-aVoTGronZ-56" target="DxdF4jCooS-aVoTGronZ-61" edge="1">
          <mxGeometry relative="1" as="geometry" />
        </mxCell>
        <mxCell id="DxdF4jCooS-aVoTGronZ-63" value="j是" style="edgeLabel;html=1;align=center;verticalAlign=middle;resizable=0;points=[];" parent="DxdF4jCooS-aVoTGronZ-62" vertex="1" connectable="0">
          <mxGeometry x="-0.581" y="3" relative="1" as="geometry">
            <mxPoint as="offset" />
          </mxGeometry>
        </mxCell>
        <mxCell id="DxdF4jCooS-aVoTGronZ-56" value="检查 peek(taskQueue)&amp;nbsp;不能为空" style="rhombus;whiteSpace=wrap;html=1;" parent="1" vertex="1">
          <mxGeometry x="375" y="1430" width="160" height="110" as="geometry" />
        </mxCell>
        <mxCell id="DxdF4jCooS-aVoTGronZ-58" value="将isHostCallbackScheduled =ture&lt;br&gt;调度任务 requestHostCallback()" style="whiteSpace=wrap;html=1;" parent="1" vertex="1">
          <mxGeometry x="635" y="1455" width="325" height="60" as="geometry" />
        </mxCell>
        <mxCell id="DxdF4jCooS-aVoTGronZ-65" value="" style="edgeStyle=orthogonalEdgeStyle;rounded=0;orthogonalLoop=1;jettySize=auto;html=1;" parent="1" source="DxdF4jCooS-aVoTGronZ-61" target="DxdF4jCooS-aVoTGronZ-64" edge="1">
          <mxGeometry relative="1" as="geometry" />
        </mxCell>
        <mxCell id="DxdF4jCooS-aVoTGronZ-66" value="有数据" style="edgeLabel;html=1;align=center;verticalAlign=middle;resizable=0;points=[];" parent="DxdF4jCooS-aVoTGronZ-65" vertex="1" connectable="0">
          <mxGeometry x="-0.15" y="-5" relative="1" as="geometry">
            <mxPoint as="offset" />
          </mxGeometry>
        </mxCell>
        <mxCell id="DxdF4jCooS-aVoTGronZ-61" value="去timerQueue中去取数据" style="whiteSpace=wrap;html=1;" parent="1" vertex="1">
          <mxGeometry x="395" y="1590" width="120" height="60" as="geometry" />
        </mxCell>
        <mxCell id="DxdF4jCooS-aVoTGronZ-64" value="requestHostTimeout(handleTimout,firstTimer&lt;span style=&quot;background-color: rgb(30, 30, 30); color: rgb(212, 212, 212); font-family: Consolas, &amp;quot;Courier New&amp;quot;, monospace; font-size: 14px;&quot;&gt;.&lt;/span&gt;&lt;span style=&quot;font-family: Consolas, &amp;quot;Courier New&amp;quot;, monospace; font-size: 14px; color: rgb(156, 220, 254);&quot;&gt;startTime&lt;/span&gt;&lt;span style=&quot;background-color: rgb(30, 30, 30); color: rgb(212, 212, 212); font-family: Consolas, &amp;quot;Courier New&amp;quot;, monospace; font-size: 14px;&quot;&gt; - &lt;/span&gt;&lt;span style=&quot;font-family: Consolas, &amp;quot;Courier New&amp;quot;, monospace; font-size: 14px; color: rgb(156, 220, 254);&quot;&gt;currentTime&lt;/span&gt;&lt;span style=&quot;background-color: initial;&quot;&gt;)&lt;/span&gt;" style="whiteSpace=wrap;html=1;" parent="1" vertex="1">
          <mxGeometry x="595" y="1590" width="425" height="60" as="geometry" />
        </mxCell>
        <mxCell id="DxdF4jCooS-aVoTGronZ-67" value="isHostTimeoutScheduled" style="rounded=0;whiteSpace=wrap;html=1;" parent="1" vertex="1">
          <mxGeometry x="340" y="50" width="180" height="60" as="geometry" />
        </mxCell>
        <mxCell id="DxdF4jCooS-aVoTGronZ-68" value="sHostCallbackScheduled" style="rounded=0;whiteSpace=wrap;html=1;" parent="1" vertex="1">
          <mxGeometry x="340" y="140" width="180" height="60" as="geometry" />
        </mxCell>
      </root>
    </mxGraphModel>
  </diagram>
</mxfile>
